<?xml version="1.0" encoding="UTF-8" standalone="no"?>
<!DOCTYPE svg PUBLIC "-//W3C//DTD SVG 1.0//EN"
 "http://www.w3.org/TR/2001/REC-SVG-20010904/DTD/svg10.dtd" [
 <!ATTLIST svg xmlns:xlink CDATA #FIXED "http://www.w3.org/1999/xlink">
]>
<!-- Generated by Graphviz version 2.12 (Wed Nov 23 19:29:35 UTC 2011)
     For user: (moore) Robert Moore -->
<!-- Title: Constellation Pages: 1 -->
<svg width="2.52in" height="3.30in"
 xmlns="http://www.w3.org/2000/svg" xmlns:xlink="http://www.w3.org/1999/xlink">
<g id="graph0" class="graph" transform="scale(1.33333 1.33333) rotate(0) translate(4 234)">
<title>Constellation</title>
<polygon style="fill:white;stroke:white;" points="-4,4 -4,-234 178,-234 178,4 -4,4"/>
<!-- course79 -->
<g id="node1" class="node"><title>course79</title>
<a xlink:href="/STAT/2060" xlink:title="STAT 2060">
<polygon style="fill:lightgrey;stroke:lightgrey;" points="104,-164 70,-164 58,-152 58,-140 70,-128 104,-128 116,-140 116,-152 104,-164"/>
<path style="fill:lightgrey;stroke:lightgrey;" d="M70,-164C64,-164 58,-158 58,-152"/>
<path style="fill:lightgrey;stroke:lightgrey;" d="M58,-140C58,-134 64,-128 70,-128"/>
<path style="fill:lightgrey;stroke:lightgrey;" d="M104,-128C110,-128 116,-134 116,-140"/>
<path style="fill:lightgrey;stroke:lightgrey;" d="M116,-152C116,-158 110,-164 104,-164"/>
<polyline style="fill:none;stroke:black;" points="104,-164 70,-164 "/>
<path style="fill:none;stroke:black;" d="M70,-164C64,-164 58,-158 58,-152"/>
<polyline style="fill:none;stroke:black;" points="58,-152 58,-140 "/>
<path style="fill:none;stroke:black;" d="M58,-140C58,-134 64,-128 70,-128"/>
<polyline style="fill:none;stroke:black;" points="70,-128 104,-128 "/>
<path style="fill:none;stroke:black;" d="M104,-128C110,-128 116,-134 116,-140"/>
<polyline style="fill:none;stroke:black;" points="116,-140 116,-152 "/>
<path style="fill:none;stroke:black;" d="M116,-152C116,-158 110,-164 104,-164"/>
<text text-anchor="middle" x="87" y="-142" style="font-family:Nimbus Roman No9 L;font-weight:regular;font-size:7.29pt;">STAT 2060</text>
</a>
</g>
<!-- course24 -->
<g id="node3" class="node"><title>course24</title>
<a xlink:href="/CSCI/3151" xlink:title="CSCI 3151">
<polyline style="fill:none;stroke:black;" points="34,-91.5 12,-91.5 "/>
<path style="fill:none;stroke:black;" d="M12,-91.5C6,-91.5 1.33533e-14,-85.5 8.94304e-15,-79.5"/>
<polyline style="fill:none;stroke:black;" points="8.94304e-15,-79.5 5.26782e-15,-74.5 "/>
<path style="fill:none;stroke:black;" d="M5.26782e-15,-74.5C8.57552e-16,-68.5 6,-62.5 12,-62.5"/>
<polyline style="fill:none;stroke:black;" points="12,-62.5 34,-62.5 "/>
<path style="fill:none;stroke:black;" d="M34,-62.5C40,-62.5 46,-68.5 46,-74.5"/>
<polyline style="fill:none;stroke:black;" points="46,-74.5 46,-79.5 "/>
<path style="fill:none;stroke:black;" d="M46,-79.5C46,-85.5 40,-91.5 34,-91.5"/>
<text text-anchor="middle" x="23" y="-74" style="font-family:Nimbus Roman No9 L;font-weight:regular;font-size:5.67pt;">CSCI 3151</text>
</a>
</g>
<!-- course79&#45;&gt;course24 -->
<g id="edge4" class="edge"><title>course79&#45;&gt;course24</title>
<path style="fill:none;stroke:black;stroke-width:2;" d="M70,-128C62,-119 53,-109 44,-99"/>
<polygon style="fill:black;stroke:black;" points="46.546,-96.5962 37,-92 41.5962,-101.546 46.546,-96.5962"/>
</g>
<!-- course29 -->
<g id="node4" class="node"><title>course29</title>
<a xlink:href="/CSCI/3171" xlink:title="CSCI 3171">
<polyline style="fill:none;stroke:black;" points="98,-91.5 76,-91.5 "/>
<path style="fill:none;stroke:black;" d="M76,-91.5C70,-91.5 64,-85.5 64,-79.5"/>
<polyline style="fill:none;stroke:black;" points="64,-79.5 64,-74.5 "/>
<path style="fill:none;stroke:black;" d="M64,-74.5C64,-68.5 70,-62.5 76,-62.5"/>
<polyline style="fill:none;stroke:black;" points="76,-62.5 98,-62.5 "/>
<path style="fill:none;stroke:black;" d="M98,-62.5C104,-62.5 110,-68.5 110,-74.5"/>
<polyline style="fill:none;stroke:black;" points="110,-74.5 110,-79.5 "/>
<path style="fill:none;stroke:black;" d="M110,-79.5C110,-85.5 104,-91.5 98,-91.5"/>
<text text-anchor="middle" x="87" y="-74" style="font-family:Nimbus Roman No9 L;font-weight:regular;font-size:5.67pt;">CSCI 3171</text>
</a>
</g>
<!-- course79&#45;&gt;course29 -->
<g id="edge6" class="edge"><title>course79&#45;&gt;course29</title>
<path style="fill:none;stroke:black;stroke-width:2;" d="M87,-128C87,-120 87,-111 87,-102"/>
<polygon style="fill:black;stroke:black;" points="90.5001,-102 87,-92 83.5001,-102 90.5001,-102"/>
</g>
<!-- course80 -->
<g id="node6" class="node"><title>course80</title>
<a xlink:href="/CSCI/4180" xlink:title="CSCI 4180">
<polyline style="fill:none;stroke:black;" points="162,-91.5 140,-91.5 "/>
<path style="fill:none;stroke:black;" d="M140,-91.5C134,-91.5 128,-85.5 128,-79.5"/>
<polyline style="fill:none;stroke:black;" points="128,-79.5 128,-74.5 "/>
<path style="fill:none;stroke:black;" d="M128,-74.5C128,-68.5 134,-62.5 140,-62.5"/>
<polyline style="fill:none;stroke:black;" points="140,-62.5 162,-62.5 "/>
<path style="fill:none;stroke:black;" d="M162,-62.5C168,-62.5 174,-68.5 174,-74.5"/>
<polyline style="fill:none;stroke:black;" points="174,-74.5 174,-79.5 "/>
<path style="fill:none;stroke:black;" d="M174,-79.5C174,-85.5 168,-91.5 162,-91.5"/>
<text text-anchor="middle" x="151" y="-74" style="font-family:Nimbus Roman No9 L;font-weight:regular;font-size:5.67pt;">CSCI 4180</text>
</a>
</g>
<!-- course79&#45;&gt;course80 -->
<g id="edge10" class="edge"><title>course79&#45;&gt;course80</title>
<path style="fill:none;stroke:black;stroke-width:2;" d="M104,-128C112,-119 121,-109 130,-99"/>
<polygon style="fill:black;stroke:black;" points="132.404,-101.546 137,-92 127.454,-96.5962 132.404,-101.546"/>
</g>
<!-- course33 -->
<g id="node2" class="node"><title>course33</title>
<a xlink:href="/MATH/1000" xlink:title="MATH 1000">
<polyline style="fill:none;stroke:black;" points="101,-229.5 73,-229.5 "/>
<path style="fill:none;stroke:black;" d="M73,-229.5C67,-229.5 61,-223.5 61,-217.5"/>
<polyline style="fill:none;stroke:black;" points="61,-217.5 61,-212.5 "/>
<path style="fill:none;stroke:black;" d="M61,-212.5C61,-206.5 67,-200.5 73,-200.5"/>
<polyline style="fill:none;stroke:black;" points="73,-200.5 101,-200.5 "/>
<path style="fill:none;stroke:black;" d="M101,-200.5C107,-200.5 113,-206.5 113,-212.5"/>
<polyline style="fill:none;stroke:black;" points="113,-212.5 113,-217.5 "/>
<path style="fill:none;stroke:black;" d="M113,-217.5C113,-223.5 107,-229.5 101,-229.5"/>
<text text-anchor="middle" x="87" y="-212" style="font-family:Nimbus Roman No9 L;font-weight:regular;font-size:5.67pt;">MATH 1000</text>
</a>
</g>
<!-- course33&#45;&gt;course79 -->
<g id="edge2" class="edge"><title>course33&#45;&gt;course79</title>
<path style="fill:none;stroke:black;stroke-width:2;" d="M87,-200C87,-193 87,-183 87,-174"/>
<polygon style="fill:black;stroke:black;" points="90.5001,-174 87,-164 83.5001,-174 90.5001,-174"/>
</g>
<!-- course114 -->
<g id="node5" class="node"><title>course114</title>
<a xlink:href="/CSCI/4176" xlink:title="CSCI 4176">
<polyline style="fill:none;stroke:black;" points="94,-25.5 80,-25.5 "/>
<path style="fill:none;stroke:black;" d="M80,-25.5C74,-25.5 68,-19.5 68,-13.5"/>
<polyline style="fill:none;stroke:black;" points="68,-13.5 68,-12.5 "/>
<path style="fill:none;stroke:black;" d="M68,-12.5C68,-6.5 74,-0.5 80,-0.5"/>
<polyline style="fill:none;stroke:black;" points="80,-0.5 94,-0.5 "/>
<path style="fill:none;stroke:black;" d="M94,-0.5C100,-0.5 106,-6.5 106,-12.5"/>
<polyline style="fill:none;stroke:black;" points="106,-12.5 106,-13.5 "/>
<path style="fill:none;stroke:black;" d="M106,-13.5C106,-19.5 100,-25.5 94,-25.5"/>
<text text-anchor="middle" x="87" y="-11" style="font-family:Nimbus Roman No9 L;font-weight:regular;font-size:4.05pt;">CSCI 4176</text>
</a>
</g>
<!-- course29&#45;&gt;course114 -->
<g id="edge8" class="edge"><title>course29&#45;&gt;course114</title>
<path style="fill:none;stroke:black;" d="M87,-62C87,-54 87,-45 87,-36"/>
<polygon style="fill:black;stroke:black;" points="90.5001,-36 87,-26 83.5001,-36 90.5001,-36"/>
</g>
</g>
</svg>
